<svg width="18" height="18" viewBox="0 0 18 18" fill="none" xmlns="http://www.w3.org/2000/svg">
<path d="M2.60001 0.200001C1.28404 0.200001 0.200012 1.28402 0.200012 2.6V15.4C0.200012 16.7256 1.27441 17.8 2.60001 17.8H16.2C17.084 17.8 17.8 17.084 17.8 16.2V5C17.8 4.116 17.084 3.4 16.2 3.4H9.80001H2.60001C2.14799 3.4 1.80001 3.05203 1.80001 2.6C1.80001 2.14798 2.14799 1.8 2.60001 1.8H14.6C14.706 1.8015 14.8113 1.78191 14.9096 1.74238C15.008 1.70285 15.0976 1.64416 15.1731 1.56973C15.2485 1.49529 15.3085 1.4066 15.3494 1.30879C15.3903 1.21098 15.4114 1.10602 15.4114 1C15.4114 0.893981 15.3903 0.789018 15.3494 0.691212C15.3085 0.593406 15.2485 0.504708 15.1731 0.430273C15.0976 0.355837 15.008 0.297148 14.9096 0.257617C14.8113 0.218086 14.706 0.198501 14.6 0.200001H2.60001ZM14.6 9C15.484 9 16.2 9.716 16.2 10.6C16.2 11.484 15.484 12.2 14.6 12.2C13.716 12.2 13 11.484 13 10.6C13 9.716 13.716 9 14.6 9Z" fill="black"/>
</svg>
